<svg width="180" height="32" viewBox="0 0 180 32" fill="none" xmlns="http://www.w3.org/2000/svg">
    <path d="M0 2.06897H4.68966V29.931H0V2.06897Z" fill="currentColor"/>
    <path d="M8.27588 11.4483H12.6207V13.5172C13.4483 12.2759 15.1724 11.1724 17.7931 11.1724C22.069 11.1724 24.5517 13.931 24.5517 18.069V29.931H20.2069V18.7586C20.2069 16.2759 19.1034 15.1724 16.8966 15.1724C14.6897 15.1724 12.6207 16.4138 12.6207 19.4483V29.931H8.27588V11.4483Z" fill="currentColor"/>
    <path d="M27.7241 20.6897C27.7241 15.3103 31.5172 11.1724 37.2414 11.1724C42.9655 11.1724 46.7586 15.3103 46.7586 20.6897C46.7586 26.069 42.9655 30.2069 37.2414 30.2069C31.5172 30.2069 27.7241 26.069 27.7241 20.6897ZM42.4138 20.6897C42.4138 17.3793 40.2069 15.1724 37.2414 15.1724C34.2759 15.1724 32.069 17.3793 32.069 20.6897C32.069 24 34.2759 26.2069 37.2414 26.2069C40.2069 26.2069 42.4138 24 42.4138 20.6897Z" fill="currentColor"/>
    <path d="M49.931 11.4483H54.2759V13.5172C55.1034 12.2759 56.8276 11.1724 59.4483 11.1724C63.7241 11.1724 66.2069 13.931 66.2069 18.069V29.931H61.8621V18.7586C61.8621 16.2759 60.7586 15.1724 58.5517 15.1724C56.3448 15.1724 54.2759 16.4138 54.2759 19.4483V29.931H49.931V11.4483Z" fill="currentColor"/>
    <path d="M69.3793 2.06897H73.7241V29.931H69.3793V2.06897Z" fill="currentColor"/>
    <path d="M77.3103 2.06897H81.6552V29.931H77.3103V2.06897Z" fill="currentColor"/>
    <path d="M85.2414 20.6897C85.2414 15.3103 89.0345 11.1724 94.7586 11.1724C100.483 11.1724 104.276 15.3103 104.276 20.6897C104.276 26.069 100.483 30.2069 94.7586 30.2069C89.0345 30.2069 85.2414 26.069 85.2414 20.6897ZM99.931 20.6897C99.931 17.3793 97.7241 15.1724 94.7586 15.1724C91.7931 15.1724 89.5862 17.3793 89.5862 20.6897C89.5862 24 91.7931 26.2069 94.7586 26.2069C97.7241 26.2069 99.931 24 99.931 20.6897Z" fill="currentColor"/>
    <path d="M107.448 11.4483H111.793V14.069C112.621 12.4138 114.345 11.1724 116.966 11.1724C121.241 11.1724 123.724 13.931 123.724 18.069V29.931H119.379V18.7586C119.379 16.2759 118.276 15.1724 116.069 15.1724C113.862 15.1724 111.793 16.4138 111.793 19.4483V29.931H107.448V11.4483Z" fill="currentColor"/>
    <path d="M126.897 2.06897H131.241V13.5172C132.069 12.2759 133.793 11.1724 136.414 11.1724C140.69 11.1724 143.172 13.931 143.172 18.069V29.931H138.828V18.7586C138.828 16.2759 137.724 15.1724 135.517 15.1724C133.31 15.1724 131.241 16.4138 131.241 19.4483V29.931H126.897V2.06897Z" fill="currentColor"/>
    <path d="M146.345 20.6897C146.345 15.3103 150.138 11.1724 155.862 11.1724C161.586 11.1724 165.379 15.3103 165.379 20.6897C165.379 26.069 161.586 30.2069 155.862 30.2069C150.138 30.2069 146.345 26.069 146.345 20.6897ZM161.034 20.6897C161.034 17.3793 158.828 15.1724 155.862 15.1724C152.897 15.1724 150.69 17.3793 150.69 20.6897C150.69 24 152.897 26.2069 155.862 26.2069C158.828 26.2069 161.034 24 161.034 20.6897Z" fill="currentColor"/>
    <path d="M168.552 11.4483H172.897V14.069C173.724 12.4138 175.448 11.1724 178.069 11.1724C179.862 11.1724 180 11.4483 180 11.4483V15.7241C180 15.7241 179.31 15.1724 177.241 15.1724C175.034 15.1724 172.897 16.4138 172.897 19.4483V29.931H168.552V11.4483Z" fill="currentColor"/>
</svg>