<svg width="180" height="32" viewBox="0 0 180 32" fill="none" xmlns="http://www.w3.org/2000/svg">
    <g clip-path="url(#clip0_1_2)">
        <path d="M27.8 0H4.2C1.88 0 0 1.88 0 4.2V27.8C0 30.12 1.88 32 4.2 32H27.8C30.12 32 32 30.12 32 27.8V4.2C32 1.88 30.12 0 27.8 0Z" fill="currentColor"/>
        <path d="M9.6 8H7.2V24H9.6V8Z" fill="white"/>
        <path d="M17.6 8H15.2V24H17.6V8Z" fill="white"/>
        <path d="M25.6 8H23.2V24H25.6V8Z" fill="white"/>
    </g>
    <path d="M48 8.8H50.4V24H48V8.8ZM48 4H50.4V6.4H48V4Z" fill="currentColor"/>
    <path d="M60.4 8.8H62.8V10.8C63.6 9.2 65.6 8.4 67.6 8.4C71.6 8.4 74 11.2 74 15.2V24H71.6V15.6C71.6 12.4 70 10.8 67.2 10.8C64.4 10.8 62.8 12.8 62.8 15.6V24H60.4V8.8Z" fill="currentColor"/>
    <path d="M84 24.4C79.2 24.4 75.6 20.8 75.6 16.4C75.6 12 79.2 8.4 84 8.4C88.8 8.4 92.4 12 92.4 16.4C92.4 20.8 88.8 24.4 84 24.4ZM84 10.8C80.4 10.8 78 13.2 78 16.4C78 19.6 80.4 22 84 22C87.6 22 90 19.6 90 16.4C90 13.2 87.6 10.8 84 10.8Z" fill="currentColor"/>
    <path d="M102.4 24.4C97.6 24.4 94 20.8 94 16.4C94 12 97.6 8.4 102.4 8.4C107.2 8.4 110.8 12 110.8 16.4C110.8 20.8 107.2 24.4 102.4 24.4ZM102.4 10.8C98.8 10.8 96.4 13.2 96.4 16.4C96.4 19.6 98.8 22 102.4 22C106 22 108.4 19.6 108.4 16.4C108.4 13.2 106 10.8 102.4 10.8Z" fill="currentColor"/>
    <path d="M120.8 24.4C116 24.4 112.4 20.8 112.4 16.4C112.4 12 116 8.4 120.8 8.4C125.6 8.4 129.2 12 129.2 16.4C129.2 20.8 125.6 24.4 120.8 24.4ZM120.8 10.8C117.2 10.8 114.8 13.2 114.8 16.4C114.8 19.6 117.2 22 120.8 22C124.4 22 126.8 19.6 126.8 16.4C126.8 13.2 124.4 10.8 120.8 10.8Z" fill="currentColor"/>
    <path d="M139.2 24.4C134.4 24.4 130.8 20.8 130.8 16.4C130.8 12 134.4 8.4 139.2 8.4C144 8.4 147.6 12 147.6 16.4C147.6 20.8 144 24.4 139.2 24.4ZM139.2 10.8C135.6 10.8 133.2 13.2 133.2 16.4C133.2 19.6 135.6 22 139.2 22C142.8 22 145.2 19.6 145.2 16.4C145.2 13.2 142.8 10.8 139.2 10.8Z" fill="currentColor"/>
    <path d="M157.6 24.4C152.8 24.4 149.2 20.8 149.2 16.4C149.2 12 152.8 8.4 157.6 8.4C162.4 8.4 166 12 166 16.4C166 20.8 162.4 24.4 157.6 24.4ZM157.6 10.8C154 10.8 151.6 13.2 151.6 16.4C151.6 19.6 154 22 157.6 22C161.2 22 163.6 19.6 163.6 16.4C163.6 13.2 161.2 10.8 157.6 10.8Z" fill="currentColor"/>
    <path d="M176 24.4C171.2 24.4 167.6 20.8 167.6 16.4C167.6 12 171.2 8.4 176 8.4C180.8 8.4 180 11.2 180 11.2V13.6C180 13.6 178.8 10.8 176 10.8C172.4 10.8 170 13.2 170 16.4C170 19.6 172.4 22 176 22C178.8 22 180 19.2 180 19.2V21.6C180 21.6 180.8 24.4 176 24.4Z" fill="currentColor"/>
    <defs>
        <clipPath id="clip0_1_2">
            <rect width="32" height="32" fill="white"/>
        </clipPath>
    </defs>
</svg>